<?xml version="1.0" encoding="UTF-8" standalone="no"?>
<!DOCTYPE svg PUBLIC "-//W3C//DTD SVG 1.1//EN" "http://www.w3.org/Graphics/SVG/1.1/DTD/svg11.dtd">
<!-- Created with Vectornator (http://vectornator.io/) -->
<svg height="0.19000000000000003in" stroke-miterlimit="10" style="fill-rule:nonzero;clip-rule:evenodd;stroke-linecap:round;stroke-linejoin:round;" version="1.1" viewBox="0 0 139.68 13.68" width="1.9400000000000002in" xml:space="preserve" xmlns="http://www.w3.org/2000/svg" xmlns:xlink="http://www.w3.org/1999/xlink">
<defs/>
<clipPath id="ArtboardFrame">
<rect height="13.68" width="139.68" x="0" y="0"/>
</clipPath>
<g clip-path="url(#ArtboardFrame)" id="Layer-1">
<g opacity="1">
<path d="M3.168 13.104L3.168 12.624L4.928 12.624C5.83467 12.624 6.664 12.4773 7.416 12.184C8.168 11.8907 8.82133 11.4773 9.376 10.944C9.93067 10.4107 10.36 9.78133 10.664 9.056C10.968 8.33067 11.12 7.536 11.12 6.672C11.12 5.808 10.968 5.01333 10.664 4.288C10.36 3.56267 9.93067 2.93333 9.376 2.4C8.82133 1.86667 8.168 1.45333 7.416 1.16C6.664 0.866667 5.83467 0.72 4.928 0.72L3.168 0.72L3.168 0.24L4.944 0.24L4.944 0.24C5.91467 0.24 6.80533 0.4 7.616 0.72C8.42667 1.04 9.13067 1.488 9.728 2.064C10.3253 2.64 10.7893 3.31733 11.12 4.096C11.4507 4.87467 11.616 5.73333 11.616 6.672C11.616 7.61067 11.4507 8.472 11.12 9.256C10.7893 10.04 10.3253 10.72 9.728 11.296C9.13067 11.872 8.42667 12.3173 7.616 12.632C6.80533 12.9467 5.91467 13.104 4.944 13.104L4.944 13.104L3.168 13.104ZM2.112 13.104L2.112 0.24L2.592 0.24L2.592 13.104L2.112 13.104ZM0 13.104L0 0.24L0.48 0.24L0.48 13.104L0 13.104ZM1.056 13.104L1.056 0.24L1.536 0.24L1.536 13.104L1.056 13.104ZM3.168 12.048L3.168 11.568L4.928 11.568C5.94133 11.568 6.832 11.36 7.6 10.944C8.368 10.528 8.97067 9.94933 9.408 9.208C9.84533 8.46667 10.064 7.62133 10.064 6.672C10.064 5.712 9.84533 4.864 9.408 4.128C8.97067 3.392 8.368 2.816 7.6 2.4C6.832 1.984 5.94133 1.776 4.928 1.776L3.168 1.776L3.168 1.296L4.944 1.296L4.944 1.296C6.04267 1.296 7.01333 1.528 7.856 1.992C8.69867 2.456 9.36 3.09067 9.84 3.896C10.32 4.70133 10.56 5.62667 10.56 6.672C10.56 7.71733 10.32 8.64533 9.84 9.456C9.36 10.2667 8.69867 10.9013 7.856 11.36C7.01333 11.8187 6.04267 12.048 4.944 12.048L4.944 12.048L3.168 12.048ZM3.168 10.992L3.168 10.512L4.928 10.512C5.73867 10.512 6.448 10.352 7.056 10.032C7.664 9.712 8.13867 9.26133 8.48 8.68C8.82133 8.09867 8.992 7.42933 8.992 6.672C8.992 5.904 8.82133 5.232 8.48 4.656C8.13867 4.08 7.664 3.632 7.056 3.312C6.448 2.992 5.73867 2.832 4.928 2.832L3.168 2.832L3.168 2.352L4.944 2.352L4.944 2.352C5.84 2.352 6.62933 2.536 7.312 2.904C7.99467 3.272 8.528 3.77867 8.912 4.424C9.296 5.06933 9.488 5.81867 9.488 6.672C9.488 7.52533 9.296 8.27733 8.912 8.928C8.528 9.57867 7.99467 10.0853 7.312 10.448C6.62933 10.8107 5.84 10.992 4.944 10.992L4.944 10.992L3.168 10.992Z" fill="#f4006f" fill-rule="nonzero" opacity="1" stroke="none"/>
<path d="M15.008 13.104L15.008 0.24L15.488 0.24L15.488 13.104L15.008 13.104ZM12.896 13.104L12.896 0.24L13.376 0.24L13.376 13.104L12.896 13.104ZM13.952 13.104L13.952 0.24L14.432 0.24L14.432 13.104L13.952 13.104ZM16.064 0.72L16.064 0.24L22.448 0.24L22.448 0.72L16.064 0.72ZM16.064 1.776L16.064 1.296L22.448 1.296L22.448 1.776L16.064 1.776ZM16.064 2.832L16.064 2.352L22.448 2.352L22.448 2.832L16.064 2.832ZM16.064 5.856L16.064 5.376L21.536 5.376L21.536 5.856L16.064 5.856ZM16.064 6.912L16.064 6.432L21.536 6.432L21.536 6.912L16.064 6.912ZM16.064 7.968L16.064 7.488L21.536 7.488L21.536 7.968L16.064 7.968ZM16.064 10.992L16.064 10.512L22.448 10.512L22.448 10.992L16.064 10.992ZM16.064 12.048L16.064 11.568L22.448 11.568L22.448 12.048L16.064 12.048ZM16.064 13.104L16.064 12.624L22.448 12.624L22.448 13.104L16.064 13.104Z" fill="#f4006f" fill-rule="nonzero" opacity="1" stroke="none"/>
<path d="M29.664 13.104L25.328 0.24L25.84 0.24L30.176 13.104L29.664 13.104ZM27.424 13.104L23.088 0.24L23.6 0.24L27.936 13.104L27.424 13.104ZM28.544 13.104L24.208 0.24L24.72 0.24L29.056 13.104L28.544 13.104ZM29.968 10.688L29.712 9.904L32.944 0.24L33.456 0.24L29.968 10.688ZM29.408 9.008L29.152 8.256L31.824 0.24L32.336 0.24L29.408 9.008ZM30.528 12.32L30.272 11.584L34.064 0.24L34.576 0.24L30.528 12.32Z" fill="#f4006f" fill-rule="nonzero" opacity="1" stroke="none"/>
<path d="M37.648 13.104L37.648 0.24L38.128 0.24L38.128 13.104L37.648 13.104ZM35.536 13.104L35.536 0.24L36.016 0.24L36.016 13.104L35.536 13.104ZM36.592 13.104L36.592 0.24L37.072 0.24L37.072 13.104L36.592 13.104ZM38.704 10.992L38.704 10.512L44.176 10.512L44.176 10.992L38.704 10.992ZM38.704 12.048L38.704 11.568L44.176 11.568L44.176 12.048L38.704 12.048ZM38.704 13.104L38.704 12.624L44.176 12.624L44.176 13.104L38.704 13.104Z" fill="#f4006f" fill-rule="nonzero" opacity="1" stroke="none"/>
<path d="M47.312 13.104L47.312 0.24L47.792 0.24L47.792 13.104L47.312 13.104ZM45.2 13.104L45.2 0.24L45.68 0.24L45.68 13.104L45.2 13.104ZM46.256 13.104L46.256 0.24L46.736 0.24L46.736 13.104L46.256 13.104Z" fill="#f4006f" fill-rule="nonzero" opacity="1" stroke="none"/>
<path d="M60.048 13.104L60.048 0.24L60.528 0.24L60.528 13.104L60.048 13.104ZM57.936 13.104L57.936 0.24L58.416 0.24L58.416 13.104L57.936 13.104ZM58.992 13.104L58.992 0.24L59.472 0.24L59.472 13.104L58.992 13.104ZM51.504 13.104L51.504 0.24L51.984 0.24L51.984 13.104L51.504 13.104ZM49.392 13.104L49.392 0.24L49.872 0.24L49.872 13.104L49.392 13.104ZM50.448 13.104L50.448 0.24L50.928 0.24L50.928 13.104L50.448 13.104ZM57.36 8.672L52.56 1.776L52.56 0.928L57.36 7.824L57.36 8.672ZM57.36 10.528L52.56 3.632L52.56 2.784L57.36 9.68L57.36 10.528ZM57.36 12.384L52.56 5.488L52.56 4.64L57.36 11.536L57.36 12.384Z" fill="#f4006f" fill-rule="nonzero" opacity="1" stroke="none"/>
<path d="M68.72 13.104L68.72 0.24L69.2 0.24L69.2 13.104L68.72 13.104ZM66.608 13.104L66.608 0.24L67.088 0.24L67.088 13.104L66.608 13.104ZM67.664 13.104L67.664 0.24L68.144 0.24L68.144 13.104L67.664 13.104ZM69.776 7.728L69.776 7.248L73.536 7.248C74.144 7.248 74.696 7.11467 75.192 6.848C75.688 6.58133 76.0827 6.20267 76.376 5.712C76.6693 5.22133 76.816 4.64533 76.816 3.984C76.816 3.32267 76.6693 2.74667 76.376 2.256C76.0827 1.76533 75.688 1.38667 75.192 1.12C74.696 0.853333 74.144 0.72 73.536 0.72L69.776 0.72L69.776 0.24L73.536 0.24C74.2293 0.24 74.8613 0.397333 75.432 0.712C76.0027 1.02667 76.456 1.464 76.792 2.024C77.128 2.584 77.296 3.23733 77.296 3.984C77.296 4.73067 77.128 5.384 76.792 5.944C76.456 6.504 76.0027 6.94133 75.432 7.256C74.8613 7.57067 74.2293 7.728 73.536 7.728L69.776 7.728ZM69.776 6.672L69.776 6.192L73.536 6.192C74.1547 6.192 74.68 5.99733 75.112 5.608C75.544 5.21867 75.76 4.67733 75.76 3.984C75.76 3.29067 75.544 2.74933 75.112 2.36C74.68 1.97067 74.1547 1.776 73.536 1.776L69.776 1.776L69.776 1.296L73.536 1.296C74.0373 1.296 74.4907 1.40533 74.896 1.624C75.3013 1.84267 75.6267 2.152 75.872 2.552C76.1173 2.952 76.24 3.42933 76.24 3.984C76.24 4.53867 76.1173 5.016 75.872 5.416C75.6267 5.816 75.3013 6.12533 74.896 6.344C74.4907 6.56267 74.0373 6.672 73.536 6.672L69.776 6.672ZM69.776 5.616L69.776 5.136L73.536 5.136C73.856 5.136 74.1307 5.04267 74.36 4.856C74.5893 4.66933 74.704 4.37867 74.704 3.984C74.704 3.57867 74.5893 3.28533 74.36 3.104C74.1307 2.92267 73.856 2.832 73.536 2.832L69.776 2.832L69.776 2.352L73.536 2.352C73.9947 2.352 74.384 2.49067 74.704 2.768C75.024 3.04533 75.184 3.45067 75.184 3.984C75.184 4.51733 75.024 4.92267 74.704 5.2C74.384 5.47733 73.9947 5.616 73.536 5.616L69.776 5.616ZM76.64 13.104L74.384 8.16C74.4587 8.14933 74.536 8.136 74.616 8.12C74.696 8.104 74.7733 8.08 74.848 8.048L77.168 13.104L76.64 13.104ZM75.472 13.104L73.248 8.272C73.3333 8.272 73.4213 8.26933 73.512 8.264C73.6027 8.25867 73.6907 8.25067 73.776 8.24L76 13.104L75.472 13.104ZM74.304 13.104L72.096 8.288L72.624 8.288L74.832 13.104L74.304 13.104Z" fill="#f4006f" fill-rule="nonzero" opacity="1" stroke="none"/>
<path d="M83.344 11.232C82.736 11.232 82.232 11.1093 81.832 10.864C81.432 10.6187 81.1333 10.2907 80.936 9.88C80.7387 9.46933 80.64 9.01333 80.64 8.512L80.64 0.24L81.12 0.24L81.12 8.512C81.12 9.13067 81.296 9.65867 81.648 10.096C82 10.5333 82.5653 10.752 83.344 10.752C84.1227 10.752 84.688 10.5333 85.04 10.096C85.392 9.65867 85.568 9.13067 85.568 8.512L85.568 0.24L86.048 0.24L86.048 8.512C86.048 9.01333 85.9493 9.46933 85.752 9.88C85.5547 10.2907 85.256 10.6187 84.856 10.864C84.456 11.1093 83.952 11.232 83.344 11.232ZM83.344 13.344C82.352 13.344 81.496 13.128 80.776 12.696C80.056 12.264 79.5013 11.68 79.112 10.944C78.7227 10.208 78.528 9.39733 78.528 8.512L78.528 0.24L79.008 0.24L79.008 8.512C79.008 9.312 79.1813 10.0427 79.528 10.704C79.8747 11.3653 80.3707 11.8907 81.016 12.28C81.6613 12.6693 82.4373 12.864 83.344 12.864C84.2507 12.864 85.0267 12.6693 85.672 12.28C86.3173 11.8907 86.8133 11.3653 87.16 10.704C87.5067 10.0427 87.68 9.312 87.68 8.512L87.68 0.24L88.16 0.24L88.16 8.512C88.16 9.39733 87.9653 10.208 87.576 10.944C87.1867 11.68 86.6347 12.264 85.92 12.696C85.2053 13.128 84.3467 13.344 83.344 13.344ZM83.344 12.288C82.544 12.288 81.864 12.1173 81.304 11.776C80.744 11.4347 80.3173 10.9787 80.024 10.408C79.7307 9.83733 79.584 9.20533 79.584 8.512L79.584 0.24L80.064 0.24L80.064 8.512C80.064 9.12 80.1893 9.672 80.44 10.168C80.6907 10.664 81.0613 11.0613 81.552 11.36C82.0427 11.6587 82.64 11.808 83.344 11.808C84.0587 11.808 84.6587 11.6587 85.144 11.36C85.6293 11.0613 85.9973 10.664 86.248 10.168C86.4987 9.672 86.624 9.12 86.624 8.512L86.624 0.24L87.104 0.24L87.104 8.512C87.104 9.20533 86.9573 9.83733 86.664 10.408C86.3707 10.9787 85.944 11.4347 85.384 11.776C84.824 12.1173 84.144 12.288 83.344 12.288Z" fill="#f4006f" fill-rule="nonzero" opacity="1" stroke="none"/>
<path d="M94.192 11.232C93.4347 11.232 92.8107 11.0853 92.32 10.792C91.8293 10.4987 91.5627 10.1067 91.52 9.616L91.984 9.488C91.984 9.85067 92.1893 10.152 92.6 10.392C93.0107 10.632 93.5413 10.752 94.192 10.752C94.864 10.752 95.4107 10.6293 95.832 10.384C96.2533 10.1387 96.464 9.824 96.464 9.44C96.464 9.07733 96.288 8.784 95.936 8.56C95.584 8.336 95.104 8.13867 94.496 7.968L93.504 7.68C92.1813 7.296 91.184 6.81067 90.512 6.224C89.84 5.63733 89.504 4.832 89.504 3.808C89.504 3.072 89.7093 2.41867 90.12 1.848C90.5307 1.27733 91.0907 0.826667 91.8 0.496C92.5093 0.165333 93.312 0 94.208 0C95.0187 0 95.752 0.130667 96.408 0.392C97.064 0.653333 97.608 1.024 98.04 1.504C98.472 1.984 98.7467 2.544 98.864 3.184L98.4 3.312C98.304 2.74667 98.064 2.25067 97.68 1.824C97.296 1.39733 96.8053 1.06667 96.208 0.832C95.6107 0.597333 94.944 0.48 94.208 0.48C93.3973 0.48 92.6747 0.626667 92.04 0.92C91.4053 1.21333 90.904 1.61067 90.536 2.112C90.168 2.61333 89.984 3.18933 89.984 3.84C89.984 4.71467 90.2907 5.416 90.904 5.944C91.5173 6.472 92.4267 6.90133 93.632 7.232L94.624 7.504C95.36 7.70667 95.9307 7.952 96.336 8.24C96.7413 8.528 96.944 8.91733 96.944 9.408C96.944 9.952 96.6933 10.392 96.192 10.728C95.6907 11.064 95.024 11.232 94.192 11.232ZM94.192 12.288C93.1893 12.288 92.3493 12.0667 91.672 11.624C90.9947 11.1813 90.5973 10.6027 90.48 9.888L90.96 9.76C91.0453 10.3787 91.3787 10.8747 91.96 11.248C92.5413 11.6213 93.2853 11.808 94.192 11.808C94.8533 11.808 95.4347 11.7067 95.936 11.504C96.4373 11.3013 96.8267 11.0187 97.104 10.656C97.3813 10.2933 97.52 9.87733 97.52 9.408C97.52 8.75733 97.2747 8.24267 96.784 7.864C96.2933 7.48533 95.616 7.17867 94.752 6.944L93.776 6.672C92.7413 6.384 91.9467 6.02133 91.392 5.584C90.8373 5.14667 90.56 4.56533 90.56 3.84C90.56 3.296 90.7173 2.816 91.032 2.4C91.3467 1.984 91.7813 1.656 92.336 1.416C92.8907 1.176 93.5147 1.056 94.208 1.056C94.8587 1.056 95.4427 1.15467 95.96 1.352C96.4773 1.54933 96.9013 1.82933 97.232 2.192C97.5627 2.55467 97.7653 2.976 97.84 3.456L97.36 3.584C97.2853 2.96533 96.9573 2.46933 96.376 2.096C95.7947 1.72267 95.072 1.536 94.208 1.536C93.6 1.536 93.056 1.63467 92.576 1.832C92.096 2.02933 91.72 2.30133 91.448 2.648C91.176 2.99467 91.04 3.392 91.04 3.84C91.04 4.448 91.2827 4.928 91.768 5.28C92.2533 5.632 92.96 5.94133 93.888 6.208L94.848 6.48C95.84 6.75733 96.6133 7.12267 97.168 7.576C97.7227 8.02933 98 8.64 98 9.408C98 9.97333 97.84 10.472 97.52 10.904C97.2 11.336 96.7547 11.6747 96.184 11.92C95.6133 12.1653 94.9493 12.288 94.192 12.288ZM94.192 13.344C93.36 13.344 92.6107 13.2133 91.944 12.952C91.2773 12.6907 90.728 12.3227 90.296 11.848C89.864 11.3733 89.584 10.8107 89.456 10.16L89.92 10.032C90.0267 10.608 90.2693 11.1067 90.648 11.528C91.0267 11.9493 91.52 12.2773 92.128 12.512C92.736 12.7467 93.424 12.864 94.192 12.864C95.0667 12.864 95.832 12.7173 96.488 12.424C97.144 12.1307 97.656 11.7253 98.024 11.208C98.392 10.6907 98.576 10.0907 98.576 9.408C98.576 8.50133 98.2613 7.776 97.632 7.232C97.0027 6.688 96.1173 6.25067 94.976 5.92L94.032 5.648C93.2533 5.424 92.656 5.17867 92.24 4.912C91.824 4.64533 91.616 4.288 91.616 3.84C91.616 3.31733 91.8613 2.89867 92.352 2.584C92.8427 2.26933 93.4613 2.112 94.208 2.112C94.9333 2.112 95.5307 2.26133 96 2.56C96.4693 2.85867 96.736 3.248 96.8 3.728L96.336 3.856C96.3147 3.48267 96.1093 3.17867 95.72 2.944C95.3307 2.70933 94.8267 2.592 94.208 2.592C93.6213 2.592 93.1227 2.704 92.712 2.928C92.3013 3.152 92.096 3.44533 92.096 3.808C92.096 4.13867 92.2853 4.40533 92.664 4.608C93.0427 4.81067 93.5413 5.00267 94.16 5.184L95.072 5.456C96.3627 5.84 97.3493 6.33867 98.032 6.952C98.7147 7.56533 99.056 8.39467 99.056 9.44C99.056 10.1973 98.8507 10.872 98.44 11.464C98.0293 12.056 97.4587 12.5173 96.728 12.848C95.9973 13.1787 95.152 13.344 94.192 13.344Z" fill="#f4006f" fill-rule="nonzero" opacity="1" stroke="none"/>
<path d="M104.512 11.232C103.755 11.232 103.131 11.0853 102.64 10.792C102.149 10.4987 101.883 10.1067 101.84 9.616L102.304 9.488C102.304 9.85067 102.509 10.152 102.92 10.392C103.331 10.632 103.861 10.752 104.512 10.752C105.184 10.752 105.731 10.6293 106.152 10.384C106.573 10.1387 106.784 9.824 106.784 9.44C106.784 9.07733 106.608 8.784 106.256 8.56C105.904 8.336 105.424 8.13867 104.816 7.968L103.824 7.68C102.501 7.296 101.504 6.81067 100.832 6.224C100.16 5.63733 99.824 4.832 99.824 3.808C99.824 3.072 100.029 2.41867 100.44 1.848C100.851 1.27733 101.411 0.826667 102.12 0.496C102.829 0.165333 103.632 0 104.528 0C105.339 0 106.072 0.130667 106.728 0.392C107.384 0.653333 107.928 1.024 108.36 1.504C108.792 1.984 109.067 2.544 109.184 3.184L108.72 3.312C108.624 2.74667 108.384 2.25067 108 1.824C107.616 1.39733 107.125 1.06667 106.528 0.832C105.931 0.597333 105.264 0.48 104.528 0.48C103.717 0.48 102.995 0.626667 102.36 0.92C101.725 1.21333 101.224 1.61067 100.856 2.112C100.488 2.61333 100.304 3.18933 100.304 3.84C100.304 4.71467 100.611 5.416 101.224 5.944C101.837 6.472 102.747 6.90133 103.952 7.232L104.944 7.504C105.68 7.70667 106.251 7.952 106.656 8.24C107.061 8.528 107.264 8.91733 107.264 9.408C107.264 9.952 107.013 10.392 106.512 10.728C106.011 11.064 105.344 11.232 104.512 11.232ZM104.512 12.288C103.509 12.288 102.669 12.0667 101.992 11.624C101.315 11.1813 100.917 10.6027 100.8 9.888L101.28 9.76C101.365 10.3787 101.699 10.8747 102.28 11.248C102.861 11.6213 103.605 11.808 104.512 11.808C105.173 11.808 105.755 11.7067 106.256 11.504C106.757 11.3013 107.147 11.0187 107.424 10.656C107.701 10.2933 107.84 9.87733 107.84 9.408C107.84 8.75733 107.595 8.24267 107.104 7.864C106.613 7.48533 105.936 7.17867 105.072 6.944L104.096 6.672C103.061 6.384 102.267 6.02133 101.712 5.584C101.157 5.14667 100.88 4.56533 100.88 3.84C100.88 3.296 101.037 2.816 101.352 2.4C101.667 1.984 102.101 1.656 102.656 1.416C103.211 1.176 103.835 1.056 104.528 1.056C105.179 1.056 105.763 1.15467 106.28 1.352C106.797 1.54933 107.221 1.82933 107.552 2.192C107.883 2.55467 108.085 2.976 108.16 3.456L107.68 3.584C107.605 2.96533 107.277 2.46933 106.696 2.096C106.115 1.72267 105.392 1.536 104.528 1.536C103.92 1.536 103.376 1.63467 102.896 1.832C102.416 2.02933 102.04 2.30133 101.768 2.648C101.496 2.99467 101.36 3.392 101.36 3.84C101.36 4.448 101.603 4.928 102.088 5.28C102.573 5.632 103.28 5.94133 104.208 6.208L105.168 6.48C106.16 6.75733 106.933 7.12267 107.488 7.576C108.043 8.02933 108.32 8.64 108.32 9.408C108.32 9.97333 108.16 10.472 107.84 10.904C107.52 11.336 107.075 11.6747 106.504 11.92C105.933 12.1653 105.269 12.288 104.512 12.288ZM104.512 13.344C103.68 13.344 102.931 13.2133 102.264 12.952C101.597 12.6907 101.048 12.3227 100.616 11.848C100.184 11.3733 99.904 10.8107 99.776 10.16L100.24 10.032C100.347 10.608 100.589 11.1067 100.968 11.528C101.347 11.9493 101.84 12.2773 102.448 12.512C103.056 12.7467 103.744 12.864 104.512 12.864C105.387 12.864 106.152 12.7173 106.808 12.424C107.464 12.1307 107.976 11.7253 108.344 11.208C108.712 10.6907 108.896 10.0907 108.896 9.408C108.896 8.50133 108.581 7.776 107.952 7.232C107.323 6.688 106.437 6.25067 105.296 5.92L104.352 5.648C103.573 5.424 102.976 5.17867 102.56 4.912C102.144 4.64533 101.936 4.288 101.936 3.84C101.936 3.31733 102.181 2.89867 102.672 2.584C103.163 2.26933 103.781 2.112 104.528 2.112C105.253 2.112 105.851 2.26133 106.32 2.56C106.789 2.85867 107.056 3.248 107.12 3.728L106.656 3.856C106.635 3.48267 106.429 3.17867 106.04 2.944C105.651 2.70933 105.147 2.592 104.528 2.592C103.941 2.592 103.443 2.704 103.032 2.928C102.621 3.152 102.416 3.44533 102.416 3.808C102.416 4.13867 102.605 4.40533 102.984 4.608C103.363 4.81067 103.861 5.00267 104.48 5.184L105.392 5.456C106.683 5.84 107.669 6.33867 108.352 6.952C109.035 7.56533 109.376 8.39467 109.376 9.44C109.376 10.1973 109.171 10.872 108.76 11.464C108.349 12.056 107.779 12.5173 107.048 12.848C106.317 13.1787 105.472 13.344 104.512 13.344Z" fill="#f4006f" fill-rule="nonzero" opacity="1" stroke="none"/>
<path d="M112.752 13.104L112.752 0.24L113.232 0.24L113.232 13.104L112.752 13.104ZM110.64 13.104L110.64 0.24L111.12 0.24L111.12 13.104L110.64 13.104ZM111.696 13.104L111.696 0.24L112.176 0.24L112.176 13.104L111.696 13.104ZM113.808 0.72L113.808 0.24L120.192 0.24L120.192 0.72L113.808 0.72ZM113.808 1.776L113.808 1.296L120.192 1.296L120.192 1.776L113.808 1.776ZM113.808 2.832L113.808 2.352L120.192 2.352L120.192 2.832L113.808 2.832ZM113.808 5.856L113.808 5.376L119.28 5.376L119.28 5.856L113.808 5.856ZM113.808 6.912L113.808 6.432L119.28 6.432L119.28 6.912L113.808 6.912ZM113.808 7.968L113.808 7.488L119.28 7.488L119.28 7.968L113.808 7.968ZM113.808 10.992L113.808 10.512L120.192 10.512L120.192 10.992L113.808 10.992ZM113.808 12.048L113.808 11.568L120.192 11.568L120.192 12.048L113.808 12.048ZM113.808 13.104L113.808 12.624L120.192 12.624L120.192 13.104L113.808 13.104Z" fill="#f4006f" fill-rule="nonzero" opacity="1" stroke="none"/>
<path d="M123.584 13.104L123.584 0.24L124.064 0.24L124.064 13.104L123.584 13.104ZM121.472 13.104L121.472 0.24L121.952 0.24L121.952 13.104L121.472 13.104ZM122.528 13.104L122.528 0.24L123.008 0.24L123.008 13.104L122.528 13.104ZM124.64 10.992L124.64 10.512L130.112 10.512L130.112 10.992L124.64 10.992ZM124.64 12.048L124.64 11.568L130.112 11.568L130.112 12.048L124.64 12.048ZM124.64 13.104L124.64 12.624L130.112 12.624L130.112 13.104L124.64 13.104Z" fill="#f4006f" fill-rule="nonzero" opacity="1" stroke="none"/>
<path d="M133.248 13.104L133.248 0.24L133.728 0.24L133.728 13.104L133.248 13.104ZM131.136 13.104L131.136 0.24L131.616 0.24L131.616 13.104L131.136 13.104ZM132.192 13.104L132.192 0.24L132.672 0.24L132.672 13.104L132.192 13.104ZM134.304 10.992L134.304 10.512L139.776 10.512L139.776 10.992L134.304 10.992ZM134.304 12.048L134.304 11.568L139.776 11.568L139.776 12.048L134.304 12.048ZM134.304 13.104L134.304 12.624L139.776 12.624L139.776 13.104L134.304 13.104Z" fill="#f4006f" fill-rule="nonzero" opacity="1" stroke="none"/>
</g>
</g>
</svg>
